<svg xmlns="http://www.w3.org/2000/svg" xmlns:xlink="http://www.w3.org/1999/xlink" version="1.1" x="0px" y="0px" viewBox="0 0 10 12.5" enable-background="new 0 0 10 10" xml:space="preserve"><g><path d="M1283.275,1106.166v5.104c1.41,0,2.552-1.143,2.552-2.552S1284.686,1106.166,1283.275,1106.166z"/><path d="M1283.709,1105.201v-0.546h0.459v-0.716h-1.784v0.716h0.458v0.546c-1.75,0.213-3.109,1.709-3.109,3.517   c0,1.954,1.59,3.544,3.543,3.544c1.955,0,3.545-1.59,3.545-3.544C1286.82,1106.91,1285.462,1105.414,1283.709,1105.201z    M1283.275,1111.686c-1.635,0-2.965-1.332-2.965-2.968s1.33-2.966,2.965-2.966c1.637,0,2.967,1.33,2.967,2.966   S1284.912,1111.686,1283.275,1111.686z"/><path d="M1281.541,1108.428h-0.723c-0.16,0-0.291,0.131-0.291,0.29c0,0.16,0.131,0.288,0.291,0.288h0.723   c0.158,0,0.289-0.128,0.289-0.288C1281.83,1108.559,1281.699,1108.428,1281.541,1108.428z"/></g><path d="M6.954,3.761c-0.128,0-0.245,0.038-0.345,0.103c-0.087-0.255-0.326-0.44-0.608-0.44c-0.141,0-0.271,0.045-0.375,0.122  C5.521,3.329,5.302,3.18,5.046,3.18c-0.111,0-0.216,0.031-0.308,0.081v-1.66c0-0.356-0.29-0.646-0.646-0.646  c-0.356,0-0.646,0.29-0.646,0.646v2.931C3.343,4.473,3.223,4.437,3.092,4.437c-0.381,0-0.691,0.29-0.691,0.646v1.705  c0,0.006,0.002,0.01,0.003,0.014c0.028,1.571,0.746,2.244,2.391,2.244c1.387,0,2.805-0.251,2.805-2.111V4.407  C7.6,4.051,7.31,3.761,6.954,3.761z M4.794,8.707c-1.498,0-2.055-0.541-2.055-1.999V5.083c0-0.169,0.158-0.308,0.353-0.308  s0.354,0.138,0.354,0.308v0.833v0.146c0,0.094,0.076,0.17,0.169,0.17s0.169-0.076,0.169-0.17V5.915V5.083V1.601  c0-0.17,0.139-0.308,0.308-0.308c0.17,0,0.309,0.138,0.309,0.308v2.225v0.469V5.02c0,0.094,0.075,0.169,0.169,0.169  c0.093,0,0.169-0.075,0.169-0.169V4.294V3.825c0-0.17,0.138-0.309,0.308-0.309s0.309,0.139,0.309,0.309v0.244v0.64v0.338  c0,0.094,0.076,0.169,0.169,0.169c0.093,0,0.168-0.075,0.168-0.169V4.709v-0.64c0-0.17,0.139-0.309,0.31-0.309  c0.169,0,0.308,0.139,0.308,0.309v0.338V4.85v0.197c0,0.094,0.075,0.169,0.169,0.169s0.168-0.075,0.168-0.169V4.85V4.407  c0-0.17,0.139-0.308,0.309-0.308s0.308,0.138,0.308,0.308v2.526C7.262,8.211,6.57,8.707,4.794,8.707z"/><text x="0" y="25" fill="#000000" font-size="5px" font-weight="bold" font-family="'Helvetica Neue', Helvetica, Arial-Unicode, Arial, Sans-serif">Created by Verry</text><text x="0" y="30" fill="#000000" font-size="5px" font-weight="bold" font-family="'Helvetica Neue', Helvetica, Arial-Unicode, Arial, Sans-serif">from the Noun Project</text></svg>