<?xml version="1.0" standalone="no"?>
<!DOCTYPE svg PUBLIC "-//W3C//DTD SVG 20010904//EN"
 "http://www.w3.org/TR/2001/REC-SVG-20010904/DTD/svg10.dtd">
<svg version="1.0" xmlns="http://www.w3.org/2000/svg"
 width="371.000000pt" height="371.000000pt" viewBox="0 0 371.000000 371.000000"
 preserveAspectRatio="xMidYMid meet">
<metadata>
Created by potrace 1.14, written by Peter Selinger 2001-2017
</metadata>
<g transform="translate(0.000000,371.000000) scale(0.100000,-0.100000)"
fill="#000000" stroke="none">
<path d="M1673 3649 c-212 -25 -397 -80 -599 -180 -372 -182 -655 -469 -834
-842 -346 -723 -182 -1571 411 -2121 220 -204 542 -370 844 -435 312 -67 633
-50 945 49 129 42 376 166 485 244 478 344 765 900 765 1481 0 581 -287 1137
-765 1481 -109 78 -355 202 -485 244 -240 77 -526 107 -767 79z m617 -1089
c113 -21 221 -90 282 -177 90 -132 108 -328 43 -471 -14 -30 -25 -61 -25 -70
0 -8 18 -35 41 -59 22 -24 55 -74 72 -111 30 -62 32 -75 31 -167 0 -79 -5
-112 -23 -158 -43 -110 -160 -208 -282 -236 -24 -6 -166 -11 -315 -11 -260 0
-272 1 -298 21 l-26 20 0 305 0 304 -263 0 c-191 0 -266 -3 -275 -12 -9 -9
-12 -91 -12 -307 0 -289 0 -295 -22 -318 -28 -30 -74 -30 -105 -1 l-23 21 0
512 c0 556 1 571 58 685 59 117 147 188 284 224 65 18 772 22 858 6z"/>
<path d="M1521 2439 c-109 -21 -194 -90 -243 -196 -28 -58 -31 -78 -36 -184
-3 -87 -1 -123 8 -134 11 -13 53 -15 276 -15 l264 0 0 264 c0 231 -2 265 -16
270 -23 9 -201 5 -253 -5z"/>
<path d="M1957 2405 c-15 -14 -17 -44 -17 -238 0 -122 5 -229 10 -237 8 -12
50 -16 242 -20 l233 -5 22 23 c35 35 56 123 51 206 -8 120 -70 211 -177 260
-38 17 -71 21 -197 24 -131 4 -153 2 -167 -13z"/>
<path d="M1957 1745 c-15 -14 -17 -45 -17 -240 0 -194 2 -226 16 -240 15 -14
43 -16 233 -13 211 3 217 4 266 29 61 33 78 51 106 114 30 67 30 153 0 220
-28 63 -45 81 -106 113 -49 26 -55 27 -266 30 -190 3 -218 2 -232 -13z"/>
</g>
</svg>
